<?xml version="1.0" standalone="no"?>
<!DOCTYPE svg PUBLIC "-//W3C//DTD SVG 20010904//EN"
 "http://www.w3.org/TR/2001/REC-SVG-20010904/DTD/svg10.dtd">
<svg version="1.0" xmlns="http://www.w3.org/2000/svg"
 width="700.000000pt" height="700.000000pt" viewBox="0 0 700.000000 700.000000"
 preserveAspectRatio="xMidYMid meet">
<metadata>
Created by potrace 1.11, written by Peter Selinger 2001-2013
</metadata>
<g transform="translate(0.000000,700.000000) scale(0.100000,-0.100000)"
fill="#000000" stroke="none">
<path d="M0 3500 l0 -3500 3500 0 3500 0 0 3500 0 3500 -3500 0 -3500 0 0
-3500z m6400 0 l0 -2900 -2900 0 -2900 0 0 2900 0 2900 2900 0 2900 0 0 -2900z"/>
<path d="M1700 3550 l0 -2250 300 0 300 0 0 2250 0 2250 -300 0 -300 0 0
-2250z"/>
<path d="M3200 3550 l0 -2250 300 0 300 0 0 2250 0 2250 -300 0 -300 0 0
-2250z"/>
<path d="M4700 3550 l0 -2250 300 0 300 0 0 2250 0 2250 -300 0 -300 0 0
-2250z"/>
</g>
</svg>
