<svg width="23" height="23" fill="none" xmlns="http://www.w3.org/2000/svg"><path d="M15.938 12.584c-.055.056-.259.293-.45.489-1.116 1.23-4.029 3.242-5.553 3.856-.232.099-.817.308-1.13.321-.3 0-.585-.069-.858-.209a1.795 1.795 0 01-.762-.866c-.096-.252-.245-1.007-.245-1.02-.15-.825-.232-2.166-.232-3.647 0-1.412.082-2.698.205-3.536.014-.013.163-.95.326-1.271a1.71 1.71 0 011.512-.951h.054c.408.014 1.266.379 1.266.392 1.442.615 4.288 2.529 5.432 3.8 0 0 .322.328.462.532.218.293.326.656.326 1.02a1.8 1.8 0 01-.353 1.09z" fill="#fff" fill-opacity=".7"/></svg>