<svg width="50" height="50" fill="none" xmlns="http://www.w3.org/2000/svg"><path d="M34.375 13.281c-2.88 0-5.474 1.204-7.322 3.13a3.106 3.106 0 011.072 2.339v12.682a10.102 10.102 0 006.25 2.162c5.61 0 10.156-4.547 10.156-10.157 0-5.609-4.547-10.156-10.156-10.156zM4.688 18.75H25v7.813H4.687V18.75zm21.093 27.344h-6.25V35.156h6.25v10.938zm-7.812 0h-6.25v-4.688h6.25v4.688zm-7.813 0h-6.25v-4.688h6.25v4.688zm7.813-6.25h-6.25v-4.688h6.25v4.688zm-7.813 0h-6.25v-4.688h6.25v4.688zm7.813-6.25h-6.25v-4.688h6.25v4.688zm7.812 0h-6.25v-4.688h6.25v4.688zm-15.625 0h-6.25v-4.688h6.25v4.688z" fill="#F15A24"/><path d="M3.906 27.344h21.875v-9.375H3.906v9.375zM5.47 19.53h18.75v6.25H5.469v-6.25zm28.905-1.561a2.347 2.347 0 012.344 2.343h1.562a3.913 3.913 0 00-3.125-3.827v-1.641h-1.562v1.562h-3.125v3.907a3.91 3.91 0 003.906 3.906 2.347 2.347 0 012.344 2.343v2.344h-2.344a2.347 2.347 0 01-2.344-2.343H30.47a3.913 3.913 0 003.125 3.827v1.641h1.562V30.47h3.125v-3.907a3.91 3.91 0 00-3.906-3.906 2.347 2.347 0 01-2.344-2.343V17.97h2.344z" fill="#fff"/><path d="M41.977 10.807l1.065-.913a10.957 10.957 0 003.833-8.332v-.78h-.781c-1.804 0-2.745 1.002-3.5 1.809-.69.735-1.235 1.315-2.361 1.315-1.127 0-1.672-.58-2.36-1.315-.757-.807-1.697-1.81-3.501-1.81-1.803 0-2.743 1.003-3.499 1.81-.688.735-1.232 1.315-2.358 1.315-1.126 0-1.67-.58-2.36-1.315-.754-.807-1.695-1.81-3.499-1.81h-.781v.781a10.96 10.96 0 003.831 8.331l1.067.915a15.497 15.497 0 00-4.385 4.036h-17.7A3.91 3.91 0 00.78 18.75v26.563a3.91 3.91 0 003.906 3.906H25a3.91 3.91 0 003.906-3.907v-8.077a14.706 14.706 0 005.469 1.046c8.185 0 14.844-6.658 14.844-14.843 0-5.07-2.81-9.91-7.242-12.631zM23.481 2.471c.618.21 1.04.66 1.535 1.188.755.807 1.696 1.81 3.499 1.81 1.803 0 2.744-1.003 3.5-1.81.687-.735 1.232-1.315 2.357-1.315 1.126 0 1.672.58 2.36 1.315.756.807 1.697 1.81 3.5 1.81 1.805 0 2.745-1.003 3.5-1.81.498-.529.919-.978 1.537-1.188a9.394 9.394 0 01-3.243 6.237l-1.69 1.448H28.414l-1.69-1.449a9.396 9.396 0 01-3.243-6.236zm3.863 42.841A2.347 2.347 0 0125 47.657H4.687a2.347 2.347 0 01-2.343-2.343V18.75a2.347 2.347 0 012.344-2.344H25a2.347 2.347 0 012.344 2.344v26.563zm7.031-8.593c-1.913 0-3.748-.414-5.469-1.196V18.75A3.91 3.91 0 0025 14.844h-.613a13.94 13.94 0 013.93-3.125h12.116c4.394 2.339 7.223 6.918 7.223 11.719 0 7.323-5.958 13.28-13.281 13.28z" fill="#fff"/><path d="M41.556 30.619a10.27 10.27 0 01-.897.798l.967 1.227a11.574 11.574 0 001.725-1.674l-1.195-1.005a9.597 9.597 0 01-.6.654zm1.113-15.46l-.095-.094-1.09 1.12.072.071a10.136 10.136 0 011.156 12.985l1.282.894a11.695 11.695 0 00-1.325-14.976zm-21.575 7.497h1.562v1.563h-1.562v-1.563zm-3.125 0h1.562v1.563H17.97v-1.563zm-3.125 0h1.562v1.563h-1.562v-1.563z" fill="#fff"/></svg>