<svg width="31" height="31" fill="none" xmlns="http://www.w3.org/2000/svg"><g opacity=".5"><path stroke="#F15A24" stroke-opacity=".5" d="M.5.5h30v30H.5z"/><path d="M26 1.5h1.667V3H31V0h-5v1.5zm0 28h1.667V28H31v3h-5v-1.5zM5 1.5H3.333V3H0V0h5v1.5zm0 28H3.333V28H0v3h5v-1.5z" fill="#fff" fill-opacity=".9"/></g><g clip-path="url(#clip0)" fill="#fff"><path d="M18.017 15.577l5.095 3.197v-6.529l-5.095 3.332zM8 12.245v6.529l5.095-3.197L8 12.245zm14.168-1.901H8.944a.93.93 0 00-.917.798l7.528 4.922 7.528-4.922a.93.93 0 00-.916-.798zm-5.016 5.799l-1.336.874a.475.475 0 01-.52 0l-1.336-.875-5.93 3.723a.93.93 0 00.915.791h13.223a.93.93 0 00.914-.791l-5.93-3.722z"/></g><defs><clipPath id="clip0"><path fill="#fff" transform="translate(8 8)" d="M0 0h15.112v15H0z"/></clipPath></defs></svg>