<svg width="25" height="26" fill="none" xmlns="http://www.w3.org/2000/svg"><path stroke="#F15A24" stroke-opacity=".25" d="M.5 1.271h24v23.815H.5z"/><path d="M15.84 14.457c-.364-.078-.651.09-.906.236-.261.151-.757.551-1.042.449-1.456-.596-2.826-1.86-3.42-3.312-.104-.289.297-.785.448-1.047.146-.253.312-.542.236-.906-.068-.327-.95-1.44-1.262-1.745-.205-.201-.416-.312-.632-.33-.814-.035-1.722 1.042-1.881 1.3-.4.55-.397 1.28.007 2.167.972 2.38 4.65 5.974 7.058 6.976.444.206.85.31 1.216.31.357 0 .675-.1.948-.296.206-.118 1.336-1.064 1.306-1.893-.018-.211-.129-.422-.33-.627-.304-.312-1.419-1.214-1.746-1.282" fill="#CDCDCD"/></svg>