<svg width="31" height="31" fill="none" xmlns="http://www.w3.org/2000/svg"><g opacity=".5"><path stroke="#F15A24" stroke-opacity=".5" d="M.5.5h30v30H.5z"/><path d="M26 1.5h1.667V3H31V0h-5v1.5ZM26 29.5h1.667V28H31v3h-5v-1.5ZM5 1.5H3.333V3H0V0h5v1.5ZM5 29.5H3.333V28H0v3h5v-1.5Z" fill="#fff" fill-opacity=".9"/></g><path d="M18.179 11.75a.536.536 0 0 1-.536-.536V8h-6.429c-.887 0-1.607.72-1.607 1.607v11.786c0 .887.72 1.607 1.607 1.607h8.572c.887 0 1.607-.72 1.607-1.607V11.75h-3.214Z" fill="#fff"/><path d="M18.714 8.314v2.365h2.365l-2.365-2.365Z" fill="#fff"/></svg>