<svg width="22" height="22" fill="none" xmlns="http://www.w3.org/2000/svg"><path d="M9.924 15.034c-.05-.049-.267-.235-.445-.408-1.117-1.015-2.947-3.663-3.505-5.049-.09-.21-.28-.743-.292-1.027 0-.272.063-.532.19-.78.177-.309.457-.557.787-.692.23-.088.915-.224.927-.224.75-.135 1.97-.21 3.316-.21 1.283 0 2.453.075 3.214.186.012.012.864.148 1.156.297.533.272.864.804.864 1.374v.05c-.013.37-.344 1.15-.356 1.15-.56 1.311-2.3 3.898-3.455 4.938 0 0-.297.293-.483.42a1.554 1.554 0 01-.927.297c-.368 0-.712-.111-.991-.322" fill="#F15A23" fill-opacity=".7"/></svg>