<svg width="31" height="31" fill="none" xmlns="http://www.w3.org/2000/svg"><g opacity=".5"><path stroke="#F15A24" stroke-opacity=".5" d="M.5.5h30v30H.5z"/><path d="M26 1.5h1.667V3H31V0h-5v1.5zm0 28h1.667V28H31v3h-5v-1.5zM5 1.5H3.333V3H0V0h5v1.5zm0 28H3.333V28H0v3h5v-1.5z" fill="#fff" fill-opacity=".9"/></g><path d="M15.5 8a5.439 5.439 0 00-5.432 5.432c0 3.718 4.861 9.175 5.068 9.406a.49.49 0 00.728 0c.207-.23 5.068-5.688 5.068-9.406A5.439 5.439 0 0015.5 8zm0 8.166a2.736 2.736 0 01-2.733-2.734A2.736 2.736 0 0115.5 10.7a2.736 2.736 0 012.733 2.733 2.736 2.736 0 01-2.733 2.734z" fill="#fff"/></svg>