<svg width="114" height="60" fill="none" xmlns="http://www.w3.org/2000/svg"><path d="M0 56.014h3.986V3.986H0v52.028zM107.633 1.993V0H5.98v1.993H3.986v1.993h105.64V1.993h-1.993zM5.98 58.007V60h101.653v-1.993h1.993v-1.993H3.986v1.993H5.98zM113.612 3.986h-3.986v52.028h3.986V3.986zm-79.728 3.96h-1.993v44.108h1.993V7.946z" fill="#fff"/><path d="M41.857 7.946h-1.993v44.108h1.993V7.946zm15.946 0H55.81v44.108h1.993V7.946zm15.945 0h-1.993v44.108h1.993V7.946z" fill="#F15A24"/><path d="M49.83 7.946h-1.993v44.108h1.993V7.946zm15.946 0h-1.994v44.108h1.994V7.946zm15.945 0h-1.993v44.108h1.993V7.946zm7.973 0H87.7v44.108h1.993V7.946zm7.973 0h-1.993v44.108h1.993V7.946zm7.973 0h-1.994v44.108h1.994V7.946zm-79.728 0h-1.993v44.108h1.993V7.946zm-7.973 0h-1.993v44.108h1.993V7.946zm-7.973 0H7.973v44.108h1.993V7.946z" fill="#fff"/><path d="M5.98 58.007H3.986v-1.993H0V60h5.98v-1.993zm0-56.014H3.986v1.993H0V0h5.98v1.993zm101.653 0h1.993v1.993h3.986V0h-5.979v1.993zm0 56.014h1.993v-1.993h3.986V60h-5.979v-1.993z" fill="#F15A24"/></svg>