<svg width="50" height="50" fill="none" xmlns="http://www.w3.org/2000/svg"><path d="M35.709 11.49l-1.105-1.105-3.556 3.556a9.354 9.354 0 00-2.749-1.611 6.247 6.247 0 002.951-5.3A6.257 6.257 0 0025 .781a6.257 6.257 0 00-6.25 6.25 6.247 6.247 0 002.95 5.299c-3.543 1.339-6.075 4.757-6.075 8.764v5.468a3.91 3.91 0 003.906 3.907v2.801l-5.24 5.24 1.105 1.105 4.135-4.135v10.614a3.128 3.128 0 003.125 3.125c.938 0 1.77-.424 2.344-1.08a3.106 3.106 0 002.344 1.08 3.128 3.128 0 003.125-3.125V30.469a3.91 3.91 0 003.906-3.907v-5.468c0-2.304-.84-4.414-2.223-6.048l3.557-3.556zM20.312 7.03A4.692 4.692 0 0125 2.344a4.692 4.692 0 014.688 4.687A4.692 4.692 0 0125 11.72a4.692 4.692 0 01-4.688-4.688zm12.5 19.532a2.347 2.347 0 01-2.343 2.343V18.75h-1.563v27.344a1.563 1.563 0 01-3.125 0v-18.75H24.22v18.75a1.564 1.564 0 01-3.125 0V18.75H19.53v10.156a2.347 2.347 0 01-2.343-2.343v-5.47c0-4.307 3.504-7.812 7.812-7.812s7.813 3.505 7.813 7.813v5.468z" fill="#fff"/><path d="M9.375.781V6.25c1.726 0 3.125 1.4 3.125 3.125a3.1 3.1 0 01-.634 1.869l3.759 2.819.617.463a8.54 8.54 0 001.727-5.151A8.594 8.594 0 009.375.781zm35.938 0H38.28a3.91 3.91 0 00-3.906 3.906v7.032h10.938a3.91 3.91 0 003.906-3.906V4.688A3.91 3.91 0 0045.312.78zM.781 42.188v3.124a3.91 3.91 0 003.906 3.907h7.032a3.91 3.91 0 003.906-3.907v-7.03H4.687a3.91 3.91 0 00-3.906 3.906z" fill="#F15A24"/><path d="M37.5 3.906h8.594V5.47H37.5V3.906zm7.031 3.125h1.563v1.563H44.53V7.03zm-7.031 0h5.469v1.563H37.5V7.03zm-33.594 37.5H12.5v1.563H3.906V44.53zm0-3.125H5.47v1.563H3.906v-1.563zm3.125 0H12.5v1.563H7.031v-1.563zm40.625 1.563V29.687h-1.562V42.97H44.53V31.25h-1.56v11.719h-1.563v-7.032h-1.562v7.032H38.28v-9.375h-1.56v9.375h-1.563v-7.813h-1.562v7.813H32.03v1.562h17.19V42.97h-1.563zm0 3.125h1.563v1.562h-1.563v-1.562zm-15.625 0h14.063v1.562H32.03v-1.562zM16.094 13.438l-1.57-1.178-1.629-1.22c.24-.508.386-1.068.386-1.665a3.914 3.914 0 00-3.125-3.827V.782h-.781C4.637.781.781 4.636.781 9.374s3.856 8.594 8.594 8.594c2.721 0 5.225-1.255 6.868-3.442l.47-.625-.62-.464zm-4.375-4.063a2.347 2.347 0 01-2.344 2.344 2.347 2.347 0 01-2.344-2.344 2.347 2.347 0 012.344-2.344 2.347 2.347 0 012.344 2.344zm-2.344 7.031a7.039 7.039 0 01-7.031-7.031c0-3.613 2.739-6.598 6.25-6.988v3.16a3.914 3.914 0 00-3.125 3.828 3.91 3.91 0 003.906 3.906c.992 0 1.89-.383 2.579-.995l.216.162 2.32 1.74a6.953 6.953 0 01-5.115 2.218z" fill="#fff"/></svg>