<svg width="31" height="31" fill="none" xmlns="http://www.w3.org/2000/svg"><path stroke="#F15A24" stroke-opacity=".5" d="M.5.5h30v30H.5z"/><path d="M26 1.5h1.667V3H31V0h-5v1.5zm0 28h1.667V28H31v3h-5v-1.5zM5 1.5H3.333V3H0V0h5v1.5zm0 28H3.333V28H0v3h5v-1.5z" fill="#fff" fill-opacity=".9"/><path d="M19.354 16.987c-.42-.09-.752.105-1.046.275-.3.175-.873.64-1.202.52-1.68-.691-3.26-2.162-3.945-3.85-.12-.335.342-.91.516-1.216.169-.294.36-.63.273-1.053-.08-.38-1.097-1.675-1.457-2.029-.237-.234-.48-.362-.73-.383-.938-.04-1.986 1.212-2.17 1.511-.46.639-.457 1.489.008 2.52 1.122 2.767 5.366 6.944 8.144 8.108.513.24.982.36 1.403.36.412 0 .779-.115 1.094-.343.238-.137 1.541-1.237 1.507-2.2-.02-.246-.149-.492-.38-.73-.35-.363-1.637-1.41-2.015-1.49z" fill="#fff"/></svg>