<svg width="50" height="50" fill="none" xmlns="http://www.w3.org/2000/svg"><path d="M30.469 37.326v-5.903l-2.914-.742a12.414 12.414 0 00-.88-2.133l1.533-2.582-4.174-4.175-2.583 1.534a12.403 12.403 0 00-2.133-.881l-.742-2.913h-5.903l-.742 2.914a12.41 12.41 0 00-2.133.88l-2.582-1.533-4.175 4.174 1.534 2.583a12.405 12.405 0 00-.881 2.133l-2.913.742v5.903l2.914.742c.228.74.523 1.454.88 2.133l-1.533 2.582 4.174 4.175L9.8 45.425a12.37 12.37 0 002.133.881l.742 2.913h5.903l.742-2.913c.74-.229 1.454-.524 2.133-.882l2.582 1.534 4.175-4.174-1.534-2.583a12.37 12.37 0 00.881-2.133l2.913-.742zm-14.844 5.643a8.594 8.594 0 110-17.188 8.594 8.594 0 010 17.188z" fill="#F15A24"/><path d="M15.625 43.75c-5.17 0-9.375-4.206-9.375-9.375 0-5.17 4.206-9.375 9.375-9.375C20.795 25 25 29.206 25 34.375c0 5.17-4.206 9.375-9.375 9.375zm0-17.188c-4.308 0-7.813 3.505-7.813 7.813s3.505 7.813 7.813 7.813 7.813-3.505 7.813-7.813-3.505-7.813-7.813-7.813z" fill="#fff"/><path d="M15.625 39.063a4.692 4.692 0 01-4.688-4.688 4.692 4.692 0 014.688-4.688 4.692 4.692 0 014.688 4.688 4.692 4.692 0 01-4.688 4.688zm0-7.813a3.128 3.128 0 00-3.125 3.125 3.128 3.128 0 003.125 3.125 3.128 3.128 0 003.125-3.125 3.128 3.128 0 00-3.125-3.125zm0-13.463l-4.904-2.943H3.125A2.347 2.347 0 01.781 12.5V3.125A2.347 2.347 0 013.125.781h18.75a2.347 2.347 0 012.344 2.344V12.5a2.347 2.347 0 01-2.344 2.344h-6.25v2.943zM3.125 2.344a.782.782 0 00-.781.781V12.5c0 .431.35.781.781.781h8.029l2.909 1.745V13.28h7.812c.431 0 .781-.35.781-.781V3.125a.782.782 0 00-.781-.781H3.125zm43.75 4.687h-18.75a2.347 2.347 0 00-2.344 2.344v10.938a2.347 2.347 0 002.344 2.343h1.563v3.608l7.215-3.608h9.972a2.347 2.347 0 002.344-2.343V9.374a2.347 2.347 0 00-2.344-2.344zm.781 13.282c0 .43-.35.78-.781.78h-10.34l-5.285 2.643v-2.642h-3.125a.782.782 0 01-.781-.782V9.376c0-.431.35-.781.781-.781h18.75c.431 0 .781.35.781.781v10.938z" fill="#fff"/><path d="M44.531 17.969H42.97v-6.25h-1.563v6.25h-1.562v-7.813H38.28v7.813h-1.56V13.28h-1.563v4.688h-1.562v-3.125H32.03v3.125h-1.56v1.562h15.625v-9.375H44.53v7.813z" fill="#fff"/><path d="M6.25 10.156a2.347 2.347 0 01-2.344-2.344A2.347 2.347 0 016.25 5.47a2.347 2.347 0 012.344 2.343 2.347 2.347 0 01-2.344 2.344zm6.25 0a2.347 2.347 0 01-2.344-2.344A2.347 2.347 0 0112.5 5.47a2.347 2.347 0 012.344 2.343 2.347 2.347 0 01-2.344 2.344zm6.25 0a2.347 2.347 0 01-2.344-2.344A2.347 2.347 0 0118.75 5.47a2.347 2.347 0 012.344 2.343 2.347 2.347 0 01-2.344 2.344zm20.313 32.032v-.61a2.327 2.327 0 01-.782-1.734v-1.43c0-1.269.95-2.407 2.218-2.473a2.344 2.344 0 012.47 2.34v1.563c0 .691-.305 1.306-.782 1.735v.608l1.728.865a2.528 2.528 0 011.398 2.26h-9.376c0-.957.542-1.832 1.398-2.26l1.727-.864z" fill="#F15A24"/><path d="M40.625 32.031c-1.528 0-3.024.41-4.346 1.188l-4.711-.56 1.584 3.735a8.555 8.555 0 00-1.12 4.231c0 4.738 3.855 8.594 8.593 8.594 4.738 0 8.594-3.856 8.594-8.594 0-4.738-3.856-8.594-8.594-8.594zm-4.41 14.063h8.82a6.997 6.997 0 01-4.41 1.562 6.996 6.996 0 01-4.41-1.562zm3.37-5.095a1.542 1.542 0 01-.523-1.155v-1.43c0-.891.664-1.65 1.478-1.693.428-.025.847.128 1.16.427.314.299.487.7.487 1.133v1.563c0 .44-.185.851-.523 1.155l-.258.233v1.438l2.16 1.08c.347.173.618.45.783.781h-7.447c.165-.332.436-.608.783-.781l2.159-1.08v-1.438l-.258-.233zm6.49 4.06a3.283 3.283 0 00-1.81-2.707l-1.183-.59a3.114 3.114 0 00.668-1.918V38.28a3.14 3.14 0 00-.973-2.266c-.629-.596-1.441-.886-2.32-.855-1.658.087-2.957 1.517-2.957 3.254v1.43c0 .695.24 1.37.667 1.918l-1.182.59a3.283 3.283 0 00-1.812 2.707 7 7 0 01-.487-8.186l.219-.346-.848-1.999 2.58.307.236-.148a7.004 7.004 0 013.752-1.093 7.039 7.039 0 017.031 7.031c0 1.68-.593 3.223-1.58 4.434z" fill="#fff"/></svg>