<svg width="31" height="31" fill="none" xmlns="http://www.w3.org/2000/svg"><g opacity=".5"><path stroke="#F15A24" stroke-opacity=".5" d="M.5.5h30v30H.5z"/><path d="M26 1.5h1.667V3H31V0h-5v1.5zm0 28h1.667V28H31v3h-5v-1.5zM5 1.5H3.333V3H0V0h5v1.5zm0 28H3.333V28H0v3h5v-1.5z" fill="#fff" fill-opacity=".9"/></g><path d="M15.5 8C11.364 8 8 11.364 8 15.5s3.364 7.5 7.5 7.5 7.5-3.364 7.5-7.5S19.636 8 15.5 8zm3.567 11.38a.623.623 0 01-.884 0l-3.125-3.126a.622.622 0 01-.183-.442V11.75a.625.625 0 111.25 0v3.804l2.942 2.942a.624.624 0 010 .883z" fill="#fff"/></svg>